<svg width="48" height="48" viewBox="0 0 48 48" fill="none" xmlns="http://www.w3.org/2000/svg">
<path fill-rule="evenodd" clip-rule="evenodd" d="M40.9219 12H7.08186V34.56H40.9219V12ZM21.6019 13.92H8.04186V30H39.9619V13.92H26.4019V14.7446H21.6019V13.92Z" fill="black"/>
<path fill-rule="evenodd" clip-rule="evenodd" d="M4.79999 36H43.2V36.96H4.79999V36Z" fill="black"/>
<path d="M18.84 20.52C18.84 21.7792 17.8192 22.8 16.56 22.8C15.3008 22.8 14.28 21.7792 14.28 20.52C14.28 19.2608 15.3008 18.24 16.56 18.24C17.8192 18.24 18.84 19.2608 18.84 20.52Z" fill="black"/>
<path d="M33.84 20.52C33.84 21.7792 32.8192 22.8 31.56 22.8C30.3008 22.8 29.28 21.7792 29.28 20.52C29.28 19.2608 30.3008 18.24 31.56 18.24C32.8192 18.24 33.84 19.2608 33.84 20.52Z" fill="black"/>
<path d="M12.48 23.88H20.64V25.8H12.48V23.88Z" fill="black"/>
<path d="M27.48 23.88H35.64V25.8H27.48V23.88Z" fill="black"/>
<path fill-rule="evenodd" clip-rule="evenodd" d="M23.52 30L23.52 13.92H24.48V30H23.52Z" fill="black"/>
</svg>
