<svg width="95" height="70" viewBox="0 0 95 70" fill="none" xmlns="http://www.w3.org/2000/svg">
<path fill-rule="evenodd" clip-rule="evenodd" d="M92.1044 50.4394H29.3844V67.2394H92.1044V50.4394ZM27.1444 48.1994V69.4794H94.3444V48.1994H27.1444Z" fill="#FAF4EE"/>
<path fill-rule="evenodd" clip-rule="evenodd" d="M65.7862 50.4394H3.06617V67.2394H65.7862V50.4394ZM0.826172 48.1994V69.4794H68.0262V48.1994H0.826172Z" fill="#FAF4EE"/>
<path fill-rule="evenodd" clip-rule="evenodd" d="M60.7491 38.6795C50.6975 38.6795 42.5491 30.5311 42.5491 20.4795C42.5491 10.428 50.6975 2.27956 60.7491 2.27956C70.8007 2.27956 78.9491 10.428 78.9491 20.4795C78.9491 30.5311 70.8007 38.6795 60.7491 38.6795ZM60.7491 40.9195C49.4604 40.9195 40.3091 31.7682 40.3091 20.4795C40.3091 9.19085 49.4604 0.0395508 60.7491 0.0395508C72.0378 0.0395508 81.1891 9.19085 81.1891 20.4795C81.1891 31.7682 72.0378 40.9195 60.7491 40.9195Z" fill="#FAF4EE"/>
<path fill-rule="evenodd" clip-rule="evenodd" d="M34.4263 38.6796C24.3747 38.6796 16.2263 30.5312 16.2263 20.4796C16.2263 10.428 24.3747 2.27963 34.4263 2.27963C44.4779 2.27963 52.6263 10.428 52.6263 20.4796C52.6263 30.5312 44.4779 38.6796 34.4263 38.6796ZM34.4263 40.9196C23.1376 40.9196 13.9863 31.7683 13.9863 20.4796C13.9863 9.19092 23.1376 0.039622 34.4263 0.039622C45.715 0.039622 54.8663 9.19092 54.8663 20.4796C54.8663 31.7683 45.715 40.9196 34.4263 40.9196Z" fill="#FAF4EE"/>
<path d="M13.9876 48.1994H81.1876V69.4794H13.9876V48.1994Z" fill="#FAF4EE"/>
<path d="M27.1477 20.4796C27.1477 31.7683 36.299 40.9196 47.5877 40.9196C58.8764 40.9196 68.0277 31.7683 68.0277 20.4796C68.0277 9.19092 58.8764 0.039622 47.5877 0.039622C36.299 0.039622 27.1477 9.19092 27.1477 20.4796Z" fill="#FAF4EE"/>
</svg>
