<svg width="48" height="48" viewBox="0 0 48 48" fill="none" xmlns="http://www.w3.org/2000/svg">
<mask id="mask0_20528_2561" style="mask-type:alpha" maskUnits="userSpaceOnUse" x="7" y="9" width="34" height="30">
<ellipse cx="23.9997" cy="24" rx="16.32" ry="14.52" fill="black"/>
</mask>
<g mask="url(#mask0_20528_2561)">
<path fill-rule="evenodd" clip-rule="evenodd" d="M29.9673 34.7031C31.5994 32.0101 32.64 28.2284 32.64 24.0001C32.64 19.7718 31.5994 15.99 29.9673 13.2971C28.3245 10.5865 26.1861 9.1201 24 9.1201C21.814 9.1201 19.6756 10.5865 18.0328 13.2971C16.4007 15.99 15.36 19.7718 15.36 24.0001C15.36 28.2284 16.4007 32.0101 18.0328 34.7031C19.6756 37.4137 21.814 38.8801 24 38.8801C26.1861 38.8801 28.3245 37.4137 29.9673 34.7031ZM24 39.8401C29.302 39.8401 33.6 32.7483 33.6 24.0001C33.6 15.2519 29.302 8.1601 24 8.1601C18.6981 8.1601 14.4 15.2519 14.4 24.0001C14.4 32.7483 18.6981 39.8401 24 39.8401Z" fill="#1B1B1B"/>
<path fill-rule="evenodd" clip-rule="evenodd" d="M26.9968 34.8848C27.9518 32.1443 28.5601 28.2961 28.5601 24.0001C28.5601 19.7041 27.9518 15.8559 26.9968 13.1154C26.5177 11.7407 25.9693 10.6968 25.4078 10.0153C24.841 9.3274 24.3603 9.1201 24.0001 9.1201C23.6399 9.1201 23.1592 9.3274 22.5924 10.0153C22.0309 10.6968 21.4825 11.7407 21.0034 13.1154C20.0484 15.8559 19.4401 19.7041 19.4401 24.0001C19.4401 28.2961 20.0484 32.1443 21.0034 34.8848C21.4825 36.2595 22.0309 37.3034 22.5924 37.9849C23.1592 38.6728 23.6399 38.8801 24.0001 38.8801C24.3603 38.8801 24.841 38.6728 25.4078 37.9849C25.9693 37.3034 26.5177 36.2595 26.9968 34.8848ZM24.0001 39.8401C27.0487 39.8401 29.5201 32.7483 29.5201 24.0001C29.5201 15.2519 27.0487 8.1601 24.0001 8.1601C20.9515 8.1601 18.4801 15.2519 18.4801 24.0001C18.4801 32.7483 20.9515 39.8401 24.0001 39.8401Z" fill="#1B1B1B"/>
<path fill-rule="evenodd" clip-rule="evenodd" d="M24.0001 61.0801C32.4732 61.0801 39.3601 54.1326 39.3601 45.5401C39.3601 36.9476 32.4732 30.0001 24.0001 30.0001C15.5269 30.0001 8.64005 36.9476 8.64005 45.5401C8.64005 54.1326 15.5269 61.0801 24.0001 61.0801ZM24.0001 62.0401C33.0133 62.0401 40.3201 54.6528 40.3201 45.5401C40.3201 36.4274 33.0133 29.0401 24.0001 29.0401C14.9868 29.0401 7.68005 36.4274 7.68005 45.5401C7.68005 54.6528 14.9868 62.0401 24.0001 62.0401Z" fill="#1B1B1B"/>
<path fill-rule="evenodd" clip-rule="evenodd" d="M24.0001 18C32.4732 18 39.3601 11.0525 39.3601 2.46002C39.3601 -6.13244 32.4732 -13.08 24.0001 -13.08C15.5269 -13.08 8.64005 -6.13244 8.64005 2.46002C8.64005 11.0525 15.5269 18 24.0001 18ZM24.0001 18.96C33.0133 18.96 40.3201 11.5727 40.3201 2.46002C40.3201 -6.65268 33.0133 -14.04 24.0001 -14.04C14.9868 -14.04 7.68005 -6.65268 7.68005 2.46002C7.68005 11.5727 14.9868 18.96 24.0001 18.96Z" fill="#1B1B1B"/>
</g>
<path fill-rule="evenodd" clip-rule="evenodd" d="M23.9997 34.92C31.4318 34.92 36.7197 29.6469 36.7197 24C36.7197 18.353 31.4318 13.08 23.9997 13.08C16.5676 13.08 11.2797 18.353 11.2797 24C11.2797 29.6469 16.5676 34.92 23.9997 34.92ZM23.9997 38.52C33.013 38.52 40.3197 32.0192 40.3197 24C40.3197 15.9808 33.013 9.47998 23.9997 9.47998C14.9864 9.47998 7.67969 15.9808 7.67969 24C7.67969 32.0192 14.9864 38.52 23.9997 38.52Z" fill="#1B1B1B"/>
<path fill-rule="evenodd" clip-rule="evenodd" d="M24.4181 10.7999L24.4181 37.2L23.5781 37.2L23.5781 10.7999L24.4181 10.7999Z" fill="#1B1B1B"/>
<path fill-rule="evenodd" clip-rule="evenodd" d="M38.8811 24.48H9.12109V23.52H38.8811V24.48Z" fill="#1B1B1B"/>
</svg>
