<svg width="55" height="70" viewBox="0 0 55 70" fill="none" xmlns="http://www.w3.org/2000/svg">
<path fill-rule="evenodd" clip-rule="evenodd" d="M27.5892 9.36045C21.249 9.36045 16.1092 14.5002 16.1092 20.8405V27.8405H7.7092V20.8405C7.7092 9.86103 16.6098 0.960449 27.5892 0.960449C38.5686 0.960449 47.4692 9.86103 47.4692 20.8405V27.8405H39.0692V20.8405C39.0692 14.5002 33.9294 9.36045 27.5892 9.36045Z" fill="#FAF4EE"/>
<path fill-rule="evenodd" clip-rule="evenodd" d="M52.5077 67.0405V30.0805L2.66773 30.0805L2.66773 67.0405H52.5077ZM54.7477 27.8405L0.427736 27.8405L0.427734 69.2805H54.7477V27.8405Z" fill="#FAF4EE"/>
<path fill-rule="evenodd" clip-rule="evenodd" d="M31.789 49.9604H23.389V41.5604H31.789V49.9604Z" fill="#FAF4EE"/>
<path fill-rule="evenodd" clip-rule="evenodd" d="M0.427736 60.3205H54.7477V62.5605H0.427736V60.3205Z" fill="#FAF4EE"/>
</svg>
